<?xml version="1.0" encoding="UTF-8"?>
<svg width="24px" height="24px" viewBox="0 0 24 24" version="1.1" xmlns="http://www.w3.org/2000/svg" xmlns:xlink="http://www.w3.org/1999/xlink">
    <!-- Generator: Sketch 59.1 (86144) - https://sketch.com -->
    <title>编组 2</title>
    <desc>Created with Sketch.</desc>
    <g id="品牌升级-3.0" stroke="none" stroke-width="1" fill="none" fill-rule="evenodd">
        <g id="01首页" transform="translate(-171.000000, -7441.000000)">
            <rect fill="rgb(255,255,255,0)" x="0" y="0" width="1440" height="7491"></rect>
            <g id="Footer" transform="translate(0.000000, 7101.000000)">
                <rect id="Rectangle-1" fill="rgb(255,255,255,0)" x="0" y="0" width="1440" height="390"></rect>
                <g id="编组-2" transform="translate(171.000000, 340.000000)" fill="#DADFE6" fill-rule="nonzero">
                    <g id="腾讯云-logo" transform="translate(0.000000, 3.000000)">
                        <g id="编组" transform="translate(0.116488, 0.047331)">
                            <g transform="translate(4.722540, 5.993617)" id="形状">
                                <path d="M14.9148547,7.69440782 C14.5287257,8.07722243 13.839328,8.51058182 12.7074562,8.54952616 C12.1846077,8.56775543 11.5739273,8.56941263 11.2938594,8.56941263 L5.21357032,8.56941263 C7.42594044,6.42084495 9.35575692,4.54654488 9.57450812,4.3335939 C9.77503005,4.13887218 10.2257901,3.70717 10.6152335,3.35749952 C11.4695233,2.58855589 12.2384669,2.43277852 12.7820305,2.43857874 C13.6338344,2.44603617 14.4085783,2.79404945 14.9629137,3.35667091 C16.1469874,4.56725995 16.1196435,6.50287665 14.9148547,7.69440782 M16.3715389,1.97787545 C15.4625613,1.05066865 14.1972845,0.467332114 12.7894879,0.466503511 C11.57227,0.466503511 10.5240872,0.886605252 9.61013805,1.63151938 C9.21075138,1.95633178 8.79230685,2.3449466 8.26697252,2.85619468 C8.00513396,3.10974721 0.428387771,10.4627706 0.428387771,10.4627706 C0.825288627,10.518287 1.37133803,10.5356876 1.85855662,10.5390021 C2.31511689,10.5423165 11.021249,10.5415799 11.3850058,10.5415799 C12.1191481,10.5415799 12.5964234,10.5398307 13.1085001,10.5025435 C14.2842878,10.4163688 15.3954445,9.98549523 16.2936502,9.10303299 C18.2880977,7.14504401 18.3179274,3.96652275 16.3715389,1.97787545"></path>
                            </g>
                            <g transform="translate(0.582757, 6.302023)" id="路径">
                                <path d="M8.28603039,1.19650279 C7.39528213,0.529477342 6.39847267,0.157434577 5.26742952,0.159086271 C3.85963296,0.159086271 2.59352751,0.742428323 1.68454998,1.66880652 C-0.261009957,3.65828242 -0.231180248,6.83680368 1.76243866,8.79479266 C2.5636978,9.58113694 3.53399196,10.0095247 4.56808856,10.1537016 L6.51862011,8.2603437 C6.20292235,8.25868649 5.75050509,8.25537208 5.34863262,8.24128583 C4.21758947,8.20234149 3.52819174,7.76815349 3.14123412,7.38616749 C1.93727391,6.19380772 1.9091014,4.25819102 3.09400375,3.04760198 C3.64751058,2.48580912 4.42308302,2.13862444 5.27488695,2.13033841 C5.80850731,2.1278526 6.53353496,2.28362998 7.35219477,2.96142726 C7.7432954,3.28541105 8.61084278,4.04772585 8.99200018,4.39159611 C9.01022945,4.40899677 9.03343033,4.41065398 9.05663122,4.39159611 L10.4006253,3.0815747 C10.4229976,3.05920242 10.4213404,3.02854411 10.3989681,3.00782903 C9.75348638,2.42366389 8.83705141,1.60666129 8.28603039,1.19650279"></path>
                            </g>
                            <g transform="translate(4.781620, 0.446368)" id="路径">
                                <path d="M13.2576486,4.87632889 C12.3312704,2.25877189 9.83468947,0.381986001 6.89894891,0.381986001 C3.53233476,0.381986001 0.74159972,2.85785188 0.235323263,6.08443212 C0.506276457,6.03803035 0.784687078,6.01482946 1.06889792,6.01482946 C1.46497017,6.01400086 1.84281316,6.06040263 2.20656989,6.14740595 C2.21402732,6.14906315 2.22148475,6.14989176 2.22728497,6.15154896 C2.68384524,3.97398018 4.60951871,2.35571844 6.89894891,2.35571844 C8.8063931,2.35571844 10.478514,3.50664806 11.2333714,5.13568164 C11.2449718,5.16219693 11.2656869,5.16965436 11.2855734,5.16468274 C11.8531665,5.00890537 12.5334496,4.91775904 13.1897032,4.96581801 C13.2543342,4.97078963 13.2783637,4.9351597 13.2576486,4.87632889"></path>
                            </g>
                        </g>
                    </g>
                </g>
            </g>
        </g>
    </g>
</svg>
