<?xml version="1.0" encoding="iso-8859-1"?>
<!-- Generator: Adobe Illustrator 19.0.0, SVG Export Plug-In . SVG Version: 6.00 Build 0)  -->
<svg version="1.1" id="Layer_1" xmlns="http://www.w3.org/2000/svg" xmlns:xlink="http://www.w3.org/1999/xlink" x="0px" y="0px"
	 viewBox="0 0 426.667 426.667" style="enable-background:new 0 0 426.667 426.667;" xml:space="preserve">
<g>
	<g>
		<g>
			<path d="M404.587,80.224c-6.144-3.413-13.077-5.547-20.587-5.547H42.667c-7.509,0-14.464,2.133-20.587,5.547l191.253,118.677
				L404.587,80.224z"/>
			<path d="M426.603,116.747L224.576,242.123c-3.435,2.133-7.339,3.221-11.243,3.221s-7.808-1.088-11.243-3.2L0.064,116.768
				c0,0.192-0.064,0.384-0.064,0.555v192c0,23.509,19.136,42.667,42.667,42.667H384c23.531,0,42.667-19.157,42.667-42.667v-192
				C426.667,117.131,426.603,116.939,426.603,116.747z"/>
		</g>
	</g>
</g>
<g>
</g>
<g>
</g>
<g>
</g>
<g>
</g>
<g>
</g>
<g>
</g>
<g>
</g>
<g>
</g>
<g>
</g>
<g>
</g>
<g>
</g>
<g>
</g>
<g>
</g>
<g>
</g>
<g>
</g>
</svg>
