<?xml version="1.0" encoding="utf-8"?>
<!-- Generator: Adobe Illustrator 16.0.0, SVG Export Plug-In . SVG Version: 6.00 Build 0)  -->
<!DOCTYPE svg PUBLIC "-//W3C//DTD SVG 1.1//EN" "http://www.w3.org/Graphics/SVG/1.1/DTD/svg11.dtd">
<svg version="1.1" id="Layer_1" xmlns="http://www.w3.org/2000/svg" xmlns:xlink="http://www.w3.org/1999/xlink" x="0px" y="0px"
	 width="50px" height="50px" viewBox="244.5 -35.5 50 50" enable-background="new 244.5 -35.5 50 50" xml:space="preserve">
<path d="M290.209-15.343c0,1.259-0.193,2.504-0.574,3.701c-1.977,8.337-16.367,17.583-18.008,18.614
	c-0.406,0.255-0.869,0.383-1.33,0.383c-0.463,0-0.924-0.127-1.33-0.383c-1.643-1.032-16.047-10.281-18.018-18.617
	c-0.383-1.206-0.576-2.45-0.576-3.699c0-4.491,2.443-8.632,6.379-10.809c1.826-1.005,3.887-1.536,5.959-1.536
	c2.779,0,5.434,0.926,7.582,2.599c2.145-1.673,4.797-2.599,7.576-2.599c2.08,0,4.141,0.531,5.959,1.535
	C287.766-23.976,290.209-19.834,290.209-15.343z"/>
</svg>
