<svg height="64" viewBox="0 1 511.99912 511" width="64" xmlns="http://www.w3.org/2000/svg"><path d="m437.019531 75.480469c-48.351562-48.351563-112.640625-74.980469-181.019531-74.980469s-132.667969 26.628906-181.019531 74.980469c-48.351563 48.351562-74.97656275 112.640625-74.97656275 181.019531 0 51.359375 15.02343775 100.558594 43.54687475 142.847656l-42.183593 91.894532c-2.617188 5.699218-1.4101568 12.425781 3.027343 16.863281 2.875 2.875 6.710938 4.394531 10.609375 4.394531 2.113282 0 4.246094-.449219 6.253906-1.367188l91.894532-42.183593c42.292968 28.519531 91.492187 43.550781 142.847656 43.550781 68.378906 0 132.667969-26.628906 181.019531-74.980469 48.355469-48.355469 74.980469-112.640625 74.980469-181.019531s-26.625-132.667969-74.980469-181.019531zm0 0" fill="#fef4f5"/><path d="m437.019531 75.480469c-48.351562-48.351563-112.640625-74.980469-181.019531-74.980469v512c68.378906 0 132.667969-26.628906 181.019531-74.980469 48.355469-48.355469 74.980469-112.640625 74.980469-181.019531s-26.625-132.667969-74.980469-181.019531zm0 0" fill="#d5eded"/><path d="m399.710938 142.644531c-20.609376-20.613281-48.011719-31.964843-77.160157-31.964843-24.390625 0-47.558593 7.949218-66.546875 22.625-18.992187-14.675782-42.160156-22.625-66.550781-22.625-29.148437 0-56.550781 11.351562-77.160156 31.964843-42.542969 42.542969-42.542969 111.769531 0 154.3125l133.101562 133.101563c2.929688 2.925781 6.769531 4.390625 10.609375 4.390625 3.835938 0 7.675782-1.464844 10.605469-4.390625l133.101563-133.101563c42.542968-42.550781 42.542968-111.773437 0-154.3125zm0 0" fill="#ff4949"/><path d="m399.710938 142.644531c-20.609376-20.613281-48.011719-31.964843-77.160157-31.964843-24.390625 0-47.558593 7.949218-66.546875 22.625v301.144531c3.835938 0 7.675782-1.464844 10.605469-4.394531l133.101563-133.097657c42.542968-42.550781 42.542968-111.773437 0-154.3125zm0 0" fill="#e80048"/></svg>
